<svg width="302" height="40" viewBox="0 0 302 40" fill="none" xmlns="http://www.w3.org/2000/svg">
<path d="M1.46042 0.265738L1.97914 0.0126537L14.9031 0V40H2.24289L1.71538 39.7975C1.056 39.5444 0.379027 38.9033 0.15044 38.3043C0.00977156 37.9163 0.000979821 36.8449 0.000980595 19.9557C0.000981512 -0.0210904 -0.0517697 1.60709 0.616408 0.881577C0.801036 0.679109 1.17909 0.400716 1.46042 0.265738Z" fill="white"/>
<rect width="259" height="40" transform="translate(14.9031)" fill="white"/>
<path d="M35.531 22.7998C35.5525 23.5661 35.4307 24.2178 35.1658 24.7549C34.9008 25.2992 34.5391 25.7575 34.0808 26.1299C33.6296 26.4951 33.1033 26.7923 32.5017 27.0215C31.893 27.2435 31.2592 27.4154 30.6003 27.5371C29.9343 27.6517 29.2647 27.7269 28.5916 27.7627C27.9184 27.7985 27.2882 27.8164 26.7009 27.8164C26.1065 27.8164 25.4441 27.7985 24.7136 27.7627C23.9903 27.734 23.1954 27.6839 22.3289 27.6123L21.8669 11.9717C22.6117 11.8356 23.335 11.7354 24.0369 11.6709C24.7387 11.5993 25.3653 11.5492 25.9167 11.5205C26.5613 11.4847 27.17 11.474 27.7429 11.4883C28.2944 11.4954 28.8422 11.5277 29.3865 11.585C29.9379 11.6351 30.4643 11.721 30.9656 11.8428C31.474 11.9574 31.9467 12.1185 32.3835 12.3262C32.8132 12.5267 33.1928 12.7917 33.5222 13.1211C33.8445 13.4434 34.0987 13.8337 34.2849 14.292C34.4711 14.7432 34.5642 15.2767 34.5642 15.8926C34.5642 16.6947 34.4174 17.3822 34.1238 17.9551C33.8302 18.5208 33.447 18.9899 32.9744 19.3623C33.5473 19.5557 34.0056 19.8314 34.3494 20.1895C34.7003 20.5404 34.9724 20.9342 35.1658 21.3711C35.352 21.8008 35.4737 22.277 35.531 22.7998ZM27.7859 13.4434C27.4565 13.4434 27.0912 13.4541 26.6902 13.4756C26.3536 13.4899 25.9669 13.5186 25.53 13.5615C25.1003 13.6045 24.642 13.6618 24.155 13.7334L24.3269 19.2119C24.9428 19.1976 25.5014 19.1797 26.0027 19.1582C26.5111 19.1296 26.948 19.1045 27.3132 19.083C27.5281 19.0687 27.7322 19.0544 27.9255 19.04C28.1189 19.0257 28.2979 19.0114 28.4626 18.9971C28.9926 18.9684 29.4975 18.8825 29.9773 18.7393C30.4643 18.5889 30.8868 18.3848 31.2449 18.127C31.6029 17.8691 31.8787 17.554 32.072 17.1816C32.2725 16.8092 32.3477 16.3796 32.2976 15.8926C32.2546 15.5273 32.158 15.2122 32.0076 14.9473C31.7068 14.4245 31.2485 14.0413 30.6326 13.7979C30.3533 13.6904 30.0453 13.6009 29.7087 13.5293C29.3865 13.472 29.0606 13.4398 28.7312 13.4326C28.4018 13.4183 28.0867 13.4219 27.7859 13.4434ZM29.8269 20.7266C29.7553 20.7337 29.6228 20.7445 29.4294 20.7588C29.2361 20.7731 29.0499 20.7874 28.8708 20.8018C28.6918 20.8161 28.5844 20.8232 28.5486 20.8232L27.281 20.9199C26.8943 20.9486 26.4503 20.9808 25.949 21.0166C25.4477 21.0452 24.9285 21.0739 24.3914 21.1025L24.5525 25.8613C24.6528 25.8685 24.753 25.8757 24.8533 25.8828C24.9535 25.8828 25.0502 25.8828 25.1433 25.8828H25.7126C25.8774 25.8828 26.0671 25.8828 26.282 25.8828C26.4968 25.8828 26.7332 25.8792 26.991 25.8721C27.4994 25.8721 28.033 25.847 28.5916 25.7969C29.1573 25.7467 29.7231 25.6644 30.2888 25.5498C30.8474 25.4281 31.3523 25.2562 31.8035 25.0342C32.2475 24.805 32.602 24.515 32.8669 24.1641C33.1391 23.806 33.2644 23.3584 33.2429 22.8213C33.1785 22.4346 33.0138 22.0872 32.7488 21.7793C32.4695 21.4642 32.0899 21.21 31.6101 21.0166C31.1375 20.8232 30.5431 20.7266 29.8269 20.7266ZM48.4001 28.0312L46.2947 27.6768L46.4451 26.1621C45.5714 26.7207 44.712 27.1253 43.8669 27.376C43.0291 27.6266 42.2449 27.752 41.5144 27.752C40.9988 27.752 40.4975 27.6839 40.0105 27.5479C39.5307 27.4189 39.1082 27.2148 38.7429 26.9355C38.3705 26.6634 38.0697 26.3161 37.8406 25.8936C37.6186 25.4639 37.5076 24.959 37.5076 24.3789C37.5076 23.7988 37.5935 23.2796 37.7654 22.8213C37.9373 22.363 38.1736 21.9583 38.4744 21.6074C38.7751 21.2565 39.1296 20.9557 39.5378 20.7051C39.946 20.4544 40.3865 20.2503 40.8591 20.0928C41.3246 19.9352 41.8152 19.8206 42.3308 19.749C42.8464 19.6702 43.3585 19.6309 43.8669 19.6309C44.3396 19.6309 44.78 19.6488 45.1882 19.6846C45.5964 19.7204 45.9581 19.7669 46.2732 19.8242C46.1443 19.3158 45.9688 18.8395 45.7468 18.3955C45.532 17.9515 45.2455 17.5934 44.8875 17.3213C44.5365 17.042 44.0818 16.9023 43.5232 16.9023C43.2439 16.9023 42.9252 16.9453 42.5671 17.0312C42.2091 17.11 41.8152 17.2568 41.3855 17.4717C40.9558 17.6865 40.4867 17.9837 39.9783 18.3633C39.4698 18.7357 38.9255 19.2155 38.3455 19.8027L37.0457 18.2236C37.7332 17.5791 38.392 17.0527 39.0222 16.6445C39.6524 16.2363 40.2468 15.9141 40.8054 15.6777C41.3569 15.4486 41.8689 15.291 42.3416 15.2051C42.8214 15.1191 43.2511 15.0762 43.6306 15.0762C44.2966 15.0762 44.8839 15.1872 45.3923 15.4092C45.908 15.6312 46.3627 15.9391 46.7566 16.333C47.1505 16.7197 47.4799 17.1781 47.7449 17.708C48.0027 18.2165 48.2211 18.7822 48.4001 19.4053C48.572 20.014 48.6938 20.6442 48.7654 21.2959C48.8442 21.9476 48.8835 22.5957 48.8835 23.2402C48.8835 23.9277 48.8442 24.6654 48.7654 25.4531C48.6866 26.2409 48.5649 27.1003 48.4001 28.0312ZM46.5955 23.7666C46.6098 23.4085 46.6205 23.054 46.6277 22.7031C46.6348 22.3522 46.6169 21.987 46.574 21.6074C46.2231 21.5 45.8542 21.4141 45.4675 21.3496C45.0808 21.2852 44.6941 21.2529 44.3074 21.2529C43.6628 21.2529 43.0362 21.3281 42.4275 21.4785C41.8259 21.6289 41.3067 21.8473 40.8699 22.1338C40.433 22.4202 40.1036 22.7712 39.8816 23.1865C39.6667 23.6019 39.6238 24.0745 39.7527 24.6045C39.8529 25.0342 40.0463 25.335 40.3328 25.5068C40.6264 25.6787 40.9773 25.7646 41.3855 25.7646C41.9154 25.7646 42.5098 25.6536 43.1687 25.4316C43.8276 25.2025 44.4613 24.9303 45.0701 24.6152C45.686 24.3001 46.1944 24.0173 46.5955 23.7666ZM62.7947 18.9004L62.8162 18.9434L61.033 20.0283L61.0115 19.9639C60.6391 19.2334 60.1163 18.6605 59.4431 18.2451C58.7699 17.8226 58.0251 17.6113 57.2087 17.6113C56.6215 17.6113 56.0701 17.7223 55.5544 17.9443C55.046 18.1663 54.602 18.4707 54.2224 18.8574C53.8357 19.2441 53.5313 19.6989 53.3093 20.2217C53.0873 20.7373 52.9763 21.2887 52.9763 21.876C52.9763 22.4561 53.0873 23.0039 53.3093 23.5195C53.5313 24.0352 53.8357 24.4863 54.2224 24.873C54.602 25.2598 55.046 25.5641 55.5544 25.7861C56.0701 26.0081 56.6215 26.1191 57.2087 26.1191C57.9535 26.1191 58.6589 25.9258 59.325 25.5391C59.991 25.1523 60.5102 24.6403 60.8826 24.0029L60.9255 23.9385L62.7947 25.002L62.7732 25.0664C62.4939 25.5319 62.1537 25.9508 61.7527 26.3232C61.3588 26.6956 60.9184 27.0179 60.4314 27.29C59.436 27.8415 58.3617 28.1172 57.2087 28.1172C56.3995 28.1172 55.6189 27.9596 54.8669 27.6445C54.115 27.3294 53.4418 26.8926 52.8474 26.334C52.2602 25.7754 51.7875 25.1165 51.4294 24.3574C51.0714 23.5983 50.8923 22.7712 50.8923 21.876C50.8923 21.3389 50.9675 20.8089 51.1179 20.2861C51.4187 19.2262 51.9522 18.306 52.7185 17.5254C52.9047 17.3249 53.1052 17.1423 53.3201 16.9775C53.5349 16.8057 53.7569 16.6481 53.9861 16.5049C54.4516 16.2256 54.9565 16.0072 55.5007 15.8496C56.045 15.6849 56.6143 15.6025 57.2087 15.6025C58.4405 15.6025 59.5541 15.8926 60.5496 16.4727C61.5307 17.0527 62.2791 17.862 62.7947 18.9004ZM64.9109 27.2471L65.4587 10.6719L67.8435 10.7148L67.446 20.9092L73.0535 15.2695L74.7078 16.5908L70.7009 20.5547L75.3201 26.5596L73.4294 27.9453L69.1111 22.1338L67.3279 23.874L67.2205 27.1074L64.9109 27.2471ZM81.905 26.0117C82.7 26.0117 83.4304 25.7754 84.0964 25.3027C84.7625 24.8229 85.1957 24.1569 85.3962 23.3047L87.4695 23.7236C87.269 24.3753 86.9861 24.9661 86.6208 25.4961C86.2556 26.026 85.8295 26.4808 85.3425 26.8604C84.8556 27.2399 84.3184 27.5335 83.7312 27.7412C83.1511 27.9489 82.5424 28.0527 81.905 28.0527C80.9597 28.0527 80.1218 27.9095 79.3914 27.623C78.6609 27.3366 78.045 26.932 77.5437 26.4092C76.5196 25.3421 76.0076 23.8883 76.0076 22.0479C76.0076 21.1527 76.158 20.3184 76.4587 19.5449C76.7667 18.7643 77.1856 18.0876 77.7156 17.5146C78.2455 16.9417 78.8686 16.4906 79.5847 16.1611C80.3009 15.8317 81.0743 15.667 81.905 15.667C82.6498 15.667 83.3516 15.8138 84.0105 16.1074C84.6694 16.3939 85.253 16.7913 85.7615 17.2998C86.2699 17.8154 86.6889 18.4206 87.0183 19.1152C87.3477 19.8099 87.5554 20.5618 87.6414 21.3711L78.3386 22.7568C78.3888 23.2653 78.5141 23.7236 78.7146 24.1318C78.9223 24.5329 79.1801 24.873 79.488 25.1523C80.1254 25.7253 80.9311 26.0117 81.905 26.0117ZM78.4031 20.7695L84.8699 19.9854L84.8054 19.7812C84.5333 19.0723 84.1573 18.5173 83.6775 18.1162C83.2048 17.7152 82.614 17.5146 81.905 17.5146C81.6042 17.5146 81.2748 17.5684 80.9167 17.6758C80.5587 17.776 80.2113 17.9515 79.8748 18.2021C79.5382 18.4528 79.2338 18.7894 78.9617 19.2119C78.6967 19.6273 78.5105 20.1465 78.4031 20.7695ZM92.4109 27.5049L90.1013 27.7949L89.8865 21.7686C89.8722 21.3604 89.8578 20.9235 89.8435 20.458C89.8292 19.9854 89.8149 19.5413 89.8005 19.126C89.7862 18.7035 89.7755 18.3704 89.7683 18.127C89.7397 17.1172 89.7182 16.3581 89.7039 15.8496L92.1531 15.8066L92.196 18.9004C92.4324 18.4922 92.7009 18.109 93.0017 17.751C93.3025 17.3857 93.6283 17.0635 93.9792 16.7842C94.3302 16.5049 94.7026 16.2793 95.0964 16.1074C95.4975 15.9355 95.9164 15.8353 96.3533 15.8066C96.9047 15.7708 97.3809 15.8174 97.782 15.9463C98.183 16.0752 98.5268 16.2542 98.8132 16.4834C99.0997 16.7054 99.336 16.974 99.5222 17.2891C99.7156 17.6113 99.8624 17.9336 99.9626 18.2559C100.07 18.5853 100.145 18.9183 100.188 19.2549C100.238 19.5843 100.271 19.8851 100.285 20.1572C100.328 21.389 100.339 22.6279 100.317 23.874C100.296 25.1201 100.271 26.4128 100.242 27.752L98.0398 27.6768C98.0971 26.5238 98.1472 25.3708 98.1902 24.2178C98.2403 23.0648 98.2367 21.901 98.1794 20.7266C98.1794 20.4759 98.1508 20.1895 98.0935 19.8672C98.0362 19.5378 97.9324 19.2119 97.782 18.8896C97.6746 18.6676 97.5349 18.4707 97.363 18.2988C97.1912 18.1341 96.9799 18.0088 96.7292 17.9229C96.4858 17.8369 96.1993 17.819 95.8699 17.8691C95.3041 17.9551 94.7312 18.3669 94.1511 19.1045C93.5782 19.8206 92.948 20.9056 92.2605 22.3594L92.3357 25.1094C92.3429 25.4531 92.35 25.7539 92.3572 26.0117C92.3643 26.2695 92.3715 26.488 92.3787 26.667C92.393 27.0824 92.4037 27.3617 92.4109 27.5049ZM112.638 16.9453L112.724 11.4453L114.744 11.5957L114.701 27.4404H112.499L112.52 26.0762C112.119 26.4486 111.686 26.7458 111.22 26.9678C110.762 27.1898 110.325 27.3545 109.91 27.4619C109.459 27.5765 109.011 27.641 108.567 27.6553C106.877 27.6553 105.481 27.0931 104.378 25.9688C103.848 25.4316 103.429 24.7764 103.121 24.0029C102.82 23.2295 102.67 22.3594 102.67 21.3926C102.67 20.4186 102.838 19.5521 103.175 18.793C103.518 18.0267 103.962 17.3822 104.507 16.8594C105.058 16.3366 105.677 15.9391 106.365 15.667C107.052 15.3877 107.747 15.248 108.449 15.248C108.929 15.2552 109.416 15.3197 109.91 15.4414C110.332 15.5417 110.787 15.71 111.274 15.9463C111.761 16.1755 112.216 16.5085 112.638 16.9453ZM108.567 25.6787C109.469 25.6787 110.293 25.403 111.038 24.8516C111.783 24.3073 112.291 23.5947 112.563 22.7139L112.585 20.4258C112.456 19.9674 112.255 19.5485 111.983 19.1689C111.711 18.7822 111.392 18.4528 111.027 18.1807C110.261 17.6077 109.419 17.3213 108.503 17.3213C107.973 17.3213 107.486 17.4323 107.042 17.6543C106.598 17.8691 106.215 18.1663 105.892 18.5459C105.57 18.9255 105.319 19.373 105.14 19.8887C104.961 20.4043 104.872 20.9629 104.872 21.5645C104.872 22.166 104.961 22.7174 105.14 23.2188C105.327 23.7201 105.584 24.1533 105.914 24.5186C106.236 24.8838 106.623 25.1702 107.074 25.3779C107.532 25.5785 108.03 25.6787 108.567 25.6787ZM124.38 14.0234L124.337 11.7568L136.744 11.4883L136.701 13.54L131.684 13.7334L131.835 27.29L129.461 27.333V13.8193L124.38 14.0234ZM143.2 26.0117C143.995 26.0117 144.725 25.7754 145.391 25.3027C146.057 24.8229 146.491 24.1569 146.691 23.3047L148.764 23.7236C148.564 24.3753 148.281 24.9661 147.916 25.4961C147.551 26.026 147.124 26.4808 146.637 26.8604C146.15 27.2399 145.613 27.5335 145.026 27.7412C144.446 27.9489 143.837 28.0527 143.2 28.0527C142.255 28.0527 141.417 27.9095 140.686 27.623C139.956 27.3366 139.34 26.932 138.839 26.4092C137.815 25.3421 137.302 23.8883 137.302 22.0479C137.302 21.1527 137.453 20.3184 137.754 19.5449C138.062 18.7643 138.481 18.0876 139.01 17.5146C139.54 16.9417 140.163 16.4906 140.88 16.1611C141.596 15.8317 142.369 15.667 143.2 15.667C143.945 15.667 144.647 15.8138 145.305 16.1074C145.964 16.3939 146.548 16.7913 147.056 17.2998C147.565 17.8154 147.984 18.4206 148.313 19.1152C148.643 19.8099 148.85 20.5618 148.936 21.3711L139.634 22.7568C139.684 23.2653 139.809 23.7236 140.01 24.1318C140.217 24.5329 140.475 24.873 140.783 25.1523C141.42 25.7253 142.226 26.0117 143.2 26.0117ZM139.698 20.7695L146.165 19.9854L146.1 19.7812C145.828 19.0723 145.452 18.5173 144.972 18.1162C144.5 17.7152 143.909 17.5146 143.2 17.5146C142.899 17.5146 142.57 17.5684 142.212 17.6758C141.854 17.776 141.506 17.9515 141.17 18.2021C140.833 18.4528 140.529 18.7894 140.257 19.2119C139.992 19.6273 139.805 20.1465 139.698 20.7695ZM162.224 18.9004L162.246 18.9434L160.463 20.0283L160.441 19.9639C160.069 19.2334 159.546 18.6605 158.873 18.2451C158.2 17.8226 157.455 17.6113 156.638 17.6113C156.051 17.6113 155.5 17.7223 154.984 17.9443C154.476 18.1663 154.032 18.4707 153.652 18.8574C153.265 19.2441 152.961 19.6989 152.739 20.2217C152.517 20.7373 152.406 21.2887 152.406 21.876C152.406 22.4561 152.517 23.0039 152.739 23.5195C152.961 24.0352 153.265 24.4863 153.652 24.873C154.032 25.2598 154.476 25.5641 154.984 25.7861C155.5 26.0081 156.051 26.1191 156.638 26.1191C157.383 26.1191 158.089 25.9258 158.755 25.5391C159.421 25.1523 159.94 24.6403 160.312 24.0029L160.355 23.9385L162.224 25.002L162.203 25.0664C161.924 25.5319 161.583 25.9508 161.182 26.3232C160.788 26.6956 160.348 27.0179 159.861 27.29C158.866 27.8415 157.791 28.1172 156.638 28.1172C155.829 28.1172 155.049 27.9596 154.297 27.6445C153.545 27.3294 152.872 26.8926 152.277 26.334C151.69 25.7754 151.217 25.1165 150.859 24.3574C150.501 23.5983 150.322 22.7712 150.322 21.876C150.322 21.3389 150.397 20.8089 150.548 20.2861C150.848 19.2262 151.382 18.306 152.148 17.5254C152.334 17.3249 152.535 17.1423 152.75 16.9775C152.965 16.8057 153.187 16.6481 153.416 16.5049C153.881 16.2256 154.386 16.0072 154.93 15.8496C155.475 15.6849 156.044 15.6025 156.638 15.6025C157.87 15.6025 158.984 15.8926 159.979 16.4727C160.96 17.0527 161.709 17.862 162.224 18.9004ZM164.588 27.5479L164.405 10.9834L166.876 10.8975L166.811 17.4287C167.205 16.999 167.624 16.6624 168.068 16.4189C168.512 16.1683 168.927 15.9785 169.314 15.8496C169.758 15.7064 170.199 15.6097 170.635 15.5596C172.254 15.5596 173.55 16.1146 174.524 17.2246C174.997 17.7617 175.369 18.417 175.641 19.1904C175.921 19.9567 176.078 20.8232 176.114 21.79C176.114 22.2985 176.107 22.8177 176.093 23.3477C176.085 23.8776 176.064 24.3968 176.028 24.9053C175.985 25.4137 175.928 25.8971 175.856 26.3555C175.792 26.8138 175.702 27.2256 175.588 27.5908L173.138 27.4189C173.346 26.7314 173.493 26.0618 173.579 25.4102C173.672 24.7585 173.736 24.1748 173.772 23.6592C173.801 23.0576 173.812 22.4847 173.804 21.9404C173.769 21.1742 173.636 20.5225 173.407 19.9854C173.185 19.4482 172.906 19.0078 172.569 18.6641C172.24 18.3275 171.871 18.084 171.463 17.9336C171.062 17.776 170.668 17.6973 170.281 17.6973C169.88 17.7259 169.468 17.8441 169.046 18.0518C168.688 18.2236 168.304 18.4922 167.896 18.8574C167.488 19.2155 167.108 19.724 166.758 20.3828L166.693 27.5049L164.588 27.5479ZM181.507 27.5049L179.197 27.7949L178.982 21.7686C178.968 21.3604 178.954 20.9235 178.939 20.458C178.925 19.9854 178.911 19.5413 178.896 19.126C178.882 18.7035 178.871 18.3704 178.864 18.127C178.835 17.1172 178.814 16.3581 178.8 15.8496L181.249 15.8066L181.292 18.9004C181.528 18.4922 181.797 18.109 182.097 17.751C182.398 17.3857 182.724 17.0635 183.075 16.7842C183.426 16.5049 183.798 16.2793 184.192 16.1074C184.593 15.9355 185.012 15.8353 185.449 15.8066C186 15.7708 186.477 15.8174 186.878 15.9463C187.279 16.0752 187.622 16.2542 187.909 16.4834C188.195 16.7054 188.432 16.974 188.618 17.2891C188.811 17.6113 188.958 17.9336 189.058 18.2559C189.166 18.5853 189.241 18.9183 189.284 19.2549C189.334 19.5843 189.366 19.8851 189.381 20.1572C189.424 21.389 189.434 22.6279 189.413 23.874C189.391 25.1201 189.366 26.4128 189.338 27.752L187.135 27.6768C187.193 26.5238 187.243 25.3708 187.286 24.2178C187.336 23.0648 187.332 21.901 187.275 20.7266C187.275 20.4759 187.247 20.1895 187.189 19.8672C187.132 19.5378 187.028 19.2119 186.878 18.8896C186.77 18.6676 186.631 18.4707 186.459 18.2988C186.287 18.1341 186.076 18.0088 185.825 17.9229C185.581 17.8369 185.295 17.819 184.966 17.8691C184.4 17.9551 183.827 18.3669 183.247 19.1045C182.674 19.8206 182.044 20.9056 181.356 22.3594L181.431 25.1094C181.439 25.4531 181.446 25.7539 181.453 26.0117C181.46 26.2695 181.467 26.488 181.474 26.667C181.489 27.0824 181.499 27.3617 181.507 27.5049ZM203.27 21.79C203.27 22.6924 203.12 23.5267 202.819 24.293C202.518 25.0592 202.107 25.7253 201.584 26.291C201.061 26.8568 200.449 27.2972 199.747 27.6123C199.045 27.9346 198.297 28.0957 197.502 28.0957C195.876 28.0957 194.526 27.5156 193.452 26.3555C192.929 25.804 192.517 25.1416 192.217 24.3682C191.916 23.5947 191.765 22.7354 191.765 21.79C191.765 20.8376 191.916 19.9746 192.217 19.2012C192.517 18.4206 192.929 17.7546 193.452 17.2031C193.968 16.6517 194.573 16.2256 195.267 15.9248C195.962 15.624 196.707 15.4736 197.502 15.4736C198.297 15.4736 199.045 15.6348 199.747 15.957C200.449 16.2721 201.061 16.709 201.584 17.2676C202.107 17.8333 202.518 18.5029 202.819 19.2764C203.12 20.0426 203.27 20.8805 203.27 21.79ZM201.004 21.7686C201.004 21.2529 200.939 20.7301 200.81 20.2002C200.681 19.6702 200.477 19.1976 200.198 18.7822C199.919 18.3597 199.557 18.0195 199.113 17.7617C198.669 17.4967 198.132 17.3643 197.502 17.3643C196.893 17.3643 196.37 17.4967 195.933 17.7617C195.497 18.0195 195.138 18.3597 194.859 18.7822C194.58 19.1976 194.376 19.6702 194.247 20.2002C194.118 20.7301 194.053 21.2529 194.053 21.7686C194.053 22.2842 194.122 22.8034 194.258 23.3262C194.401 23.8418 194.616 24.3109 194.902 24.7334C195.189 25.1488 195.547 25.4925 195.976 25.7646C196.413 26.0296 196.922 26.1621 197.502 26.1621C198.11 26.1621 198.633 26.0296 199.07 25.7646C199.514 25.4925 199.879 25.1488 200.166 24.7334C200.452 24.3109 200.663 23.8418 200.8 23.3262C200.936 22.8034 201.004 22.2842 201.004 21.7686ZM210.188 25.3887L209.909 27.5264C209.4 27.5192 208.949 27.4333 208.555 27.2686C208.169 27.1038 207.829 26.889 207.535 26.624C207.234 26.3662 206.976 26.069 206.761 25.7324C206.554 25.3958 206.378 25.0557 206.235 24.7119C205.891 23.8955 205.677 22.9717 205.591 21.9404L205.881 8.31934H208.126L208.029 11.8213C208.015 12.3512 208 12.8597 207.986 13.3467C207.972 13.8265 207.957 14.2848 207.943 14.7217C207.922 15.5882 207.9 16.3688 207.879 17.0635C207.864 17.751 207.85 18.3561 207.836 18.8789C207.8 20.1178 207.778 21.0882 207.771 21.79C207.778 22.4489 207.875 23.0433 208.061 23.5732C208.219 24.0602 208.466 24.4827 208.802 24.8408C209.139 25.1917 209.601 25.3743 210.188 25.3887ZM222.628 21.79C222.628 22.6924 222.477 23.5267 222.177 24.293C221.876 25.0592 221.464 25.7253 220.941 26.291C220.418 26.8568 219.806 27.2972 219.104 27.6123C218.402 27.9346 217.654 28.0957 216.859 28.0957C215.233 28.0957 213.884 27.5156 212.809 26.3555C212.287 25.804 211.875 25.1416 211.574 24.3682C211.273 23.5947 211.123 22.7354 211.123 21.79C211.123 20.8376 211.273 19.9746 211.574 19.2012C211.875 18.4206 212.287 17.7546 212.809 17.2031C213.325 16.6517 213.93 16.2256 214.625 15.9248C215.319 15.624 216.064 15.4736 216.859 15.4736C217.654 15.4736 218.402 15.6348 219.104 15.957C219.806 16.2721 220.418 16.709 220.941 17.2676C221.464 17.8333 221.876 18.5029 222.177 19.2764C222.477 20.0426 222.628 20.8805 222.628 21.79ZM220.361 21.7686C220.361 21.2529 220.297 20.7301 220.168 20.2002C220.039 19.6702 219.835 19.1976 219.555 18.7822C219.276 18.3597 218.914 18.0195 218.47 17.7617C218.026 17.4967 217.489 17.3643 216.859 17.3643C216.25 17.3643 215.728 17.4967 215.291 17.7617C214.854 18.0195 214.496 18.3597 214.217 18.7822C213.937 19.1976 213.733 19.6702 213.604 20.2002C213.475 20.7301 213.411 21.2529 213.411 21.7686C213.411 22.2842 213.479 22.8034 213.615 23.3262C213.758 23.8418 213.973 24.3109 214.26 24.7334C214.546 25.1488 214.904 25.4925 215.334 25.7646C215.771 26.0296 216.279 26.1621 216.859 26.1621C217.468 26.1621 217.991 26.0296 218.427 25.7646C218.872 25.4925 219.237 25.1488 219.523 24.7334C219.81 24.3109 220.021 23.8418 220.157 23.3262C220.293 22.8034 220.361 22.2842 220.361 21.7686ZM234.261 17.1709L234.283 15.0332L236.388 15.0977L236.324 27.4404C236.317 27.6696 236.299 27.9023 236.27 28.1387C236.242 28.375 236.199 28.6077 236.141 28.8369C235.912 29.7751 235.465 30.6309 234.799 31.4043C234.462 31.7839 234.079 32.124 233.649 32.4248C233.212 32.7184 232.725 32.9583 232.188 33.1445C231.651 33.3379 231.064 33.4596 230.427 33.5098C229.581 33.5384 228.765 33.4489 227.977 33.2412C227.275 33.055 226.595 32.7292 225.936 32.2637C225.277 31.7982 224.787 31.1501 224.465 30.3193L226.538 29.417C226.788 29.9827 227.143 30.4196 227.601 30.7275C228.067 31.0426 228.539 31.2467 229.019 31.3398C229.542 31.4544 230.094 31.4759 230.674 31.4043C230.924 31.3542 231.157 31.2897 231.372 31.2109C231.594 31.1322 231.798 31.0426 231.984 30.9424C232.349 30.7347 232.661 30.502 232.919 30.2441C233.184 29.9935 233.395 29.7285 233.552 29.4492C233.631 29.306 233.699 29.1663 233.757 29.0303C233.821 28.8942 233.878 28.7617 233.928 28.6328C234.022 28.375 234.082 28.1387 234.111 27.9238C234.147 27.7161 234.165 27.555 234.165 27.4404V26.0332C233.735 26.4414 233.288 26.7565 232.822 26.9785C232.364 27.1934 231.938 27.3509 231.544 27.4512C231.315 27.5085 231.085 27.555 230.856 27.5908C230.634 27.6266 230.412 27.6481 230.19 27.6553C228.5 27.6553 227.104 27.0931 226.001 25.9688C225.471 25.4316 225.052 24.7764 224.744 24.0029C224.443 23.2295 224.293 22.3594 224.293 21.3926C224.293 20.4186 224.461 19.5521 224.798 18.793C225.141 18.0267 225.585 17.3822 226.13 16.8594C226.681 16.3366 227.301 15.9391 227.988 15.667C228.676 15.3877 229.37 15.248 230.072 15.248C230.559 15.3053 231.05 15.4128 231.544 15.5703C231.966 15.7064 232.421 15.8997 232.908 16.1504C233.395 16.401 233.846 16.7412 234.261 17.1709ZM230.19 25.5928C231.15 25.5928 232.013 25.2777 232.779 24.6475C233.137 24.3538 233.441 24.0029 233.692 23.5947C233.943 23.1794 234.115 22.7246 234.208 22.2305V20.8232C234.129 20.3148 233.961 19.8529 233.703 19.4375C233.445 19.015 233.13 18.6533 232.758 18.3525C231.984 17.7223 231.107 17.4072 230.126 17.4072C229.61 17.4072 229.134 17.5146 228.697 17.7295C228.267 17.9372 227.895 18.2272 227.58 18.5996C227.272 18.972 227.028 19.4124 226.849 19.9209C226.67 20.4294 226.581 20.9772 226.581 21.5645C226.581 22.1517 226.67 22.6924 226.849 23.1865C227.028 23.6735 227.279 24.096 227.601 24.4541C227.916 24.805 228.292 25.0843 228.729 25.292C229.173 25.4925 229.66 25.5928 230.19 25.5928ZM242.447 12.6807C242.447 13.096 242.293 13.4541 241.985 13.7549C241.684 14.0485 241.323 14.1953 240.9 14.1953C240.485 14.1953 240.127 14.0485 239.826 13.7549C239.532 13.4541 239.385 13.096 239.385 12.6807C239.385 12.2581 239.532 11.8965 239.826 11.5957C240.127 11.2878 240.485 11.1338 240.9 11.1338C241.323 11.1338 241.684 11.2878 241.985 11.5957C242.293 11.8965 242.447 12.2581 242.447 12.6807ZM239.719 16.5479L241.942 16.4619L241.835 21.6182C241.799 23.0361 241.777 24.1497 241.77 24.959C241.749 25.9473 241.738 26.7243 241.738 27.29H239.536C239.543 26.9033 239.55 26.4808 239.557 26.0225C239.572 25.557 239.582 25.0592 239.59 24.5293C239.604 23.6055 239.625 22.4847 239.654 21.167L239.719 16.5479ZM250.192 26.0117C250.987 26.0117 251.718 25.7754 252.384 25.3027C253.05 24.8229 253.483 24.1569 253.683 23.3047L255.757 23.7236C255.556 24.3753 255.273 24.9661 254.908 25.4961C254.543 26.026 254.117 26.4808 253.63 26.8604C253.143 27.2399 252.606 27.5335 252.018 27.7412C251.438 27.9489 250.83 28.0527 250.192 28.0527C249.247 28.0527 248.409 27.9095 247.678 27.623C246.948 27.3366 246.332 26.932 245.831 26.4092C244.807 25.3421 244.295 23.8883 244.295 22.0479C244.295 21.1527 244.445 20.3184 244.746 19.5449C245.054 18.7643 245.473 18.0876 246.003 17.5146C246.533 16.9417 247.156 16.4906 247.872 16.1611C248.588 15.8317 249.361 15.667 250.192 15.667C250.937 15.667 251.639 15.8138 252.298 16.1074C252.956 16.3939 253.54 16.7913 254.049 17.2998C254.557 17.8154 254.976 18.4206 255.305 19.1152C255.635 19.8099 255.843 20.5618 255.928 21.3711L246.626 22.7568C246.676 23.2653 246.801 23.7236 247.002 24.1318C247.209 24.5329 247.467 24.873 247.775 25.1523C248.413 25.7253 249.218 26.0117 250.192 26.0117ZM246.69 20.7695L253.157 19.9854L253.093 19.7812C252.82 19.0723 252.444 18.5173 251.965 18.1162C251.492 17.7152 250.901 17.5146 250.192 17.5146C249.891 17.5146 249.562 17.5684 249.204 17.6758C248.846 17.776 248.498 17.9515 248.162 18.2021C247.825 18.4528 247.521 18.7894 247.249 19.2119C246.984 19.6273 246.798 20.1465 246.69 20.7695ZM267.96 24.6475C267.96 25.3278 267.824 25.9007 267.552 26.3662C267.279 26.8245 266.911 27.2005 266.445 27.4941C265.987 27.7806 265.457 27.9919 264.855 28.1279C264.254 28.2712 263.631 28.3571 262.986 28.3857C262.313 28.3714 261.647 28.3034 260.988 28.1816C260.408 28.0814 259.767 27.8952 259.065 27.623C258.363 27.3509 257.733 26.9964 257.175 26.5596L258.217 24.9268C258.61 25.1344 259.011 25.335 259.42 25.5283C259.835 25.7217 260.258 25.89 260.687 26.0332C261.117 26.1836 261.557 26.3018 262.009 26.3877C262.46 26.4736 262.925 26.5166 263.405 26.5166C264.085 26.5166 264.608 26.4056 264.973 26.1836C265.339 25.9544 265.579 25.6751 265.693 25.3457C265.822 24.916 265.697 24.5042 265.317 24.1104C265.246 24.0387 265.163 23.9743 265.07 23.917C264.977 23.8525 264.873 23.7917 264.759 23.7344C264.529 23.627 264.25 23.5374 263.921 23.4658C263.591 23.3942 263.201 23.3477 262.75 23.3262C262.105 23.2975 261.482 23.2331 260.881 23.1328C260.286 23.0254 259.756 22.8607 259.291 22.6387C258.818 22.4167 258.428 22.1266 258.12 21.7686C257.819 21.4033 257.636 20.9486 257.572 20.4043C257.522 19.9102 257.558 19.4375 257.679 18.9863C257.909 18.1628 258.381 17.486 259.097 16.9561C259.276 16.8343 259.459 16.7197 259.645 16.6123C259.839 16.5049 260.039 16.4082 260.247 16.3223C260.662 16.1576 261.099 16.0358 261.557 15.957C262.023 15.8711 262.492 15.8281 262.965 15.8281C263.244 15.8281 263.573 15.8424 263.953 15.8711C264.332 15.8997 264.73 15.957 265.145 16.043C265.561 16.1289 265.98 16.2542 266.402 16.4189C266.825 16.5765 267.219 16.7878 267.584 17.0527L266.843 19.0186C266.37 18.7679 265.919 18.5745 265.489 18.4385C265.066 18.2952 264.691 18.1842 264.361 18.1055C264.168 18.0625 263.978 18.0267 263.792 17.998C263.613 17.9694 263.441 17.9479 263.276 17.9336C262.152 17.8691 261.274 17.9873 260.644 18.2881C260.021 18.5889 259.71 19.0436 259.71 19.6523C259.71 20.082 259.828 20.3971 260.064 20.5977C260.301 20.791 260.623 20.9307 261.031 21.0166C261.267 21.0667 261.568 21.1097 261.933 21.1455C262.306 21.1742 262.692 21.2064 263.094 21.2422C263.502 21.278 263.871 21.321 264.2 21.3711C264.902 21.4785 265.493 21.6396 265.972 21.8545C266.452 22.0693 266.839 22.32 267.133 22.6064C267.426 22.8929 267.637 23.2116 267.766 23.5625C267.895 23.9062 267.96 24.2679 267.96 24.6475Z" fill="black"/>
<path fill-rule="evenodd" clip-rule="evenodd" d="M301.795 10.3678C301.592 9.75223 300.959 9.25471 299.166 8.28496C298.511 7.93521 297.508 7.39377 296.601 6.90379C296.217 6.69675 295.851 6.49891 295.535 6.32859C294.948 6.00743 294.28 5.64517 293.707 5.33398C293.241 5.08137 292.838 4.86241 292.59 4.7264C292.036 4.43125 291.042 3.89157 290.392 3.52896C286.822 1.56417 284.273 0.214949 283.947 0.105325C283.732 0.0366424 281.962 0.00680769 273.903 0V40H283.666L284.079 39.8145C284.299 39.7217 285.741 38.9544 287.288 38.1195C287.819 37.8315 288.501 37.4631 289.243 37.0619C290.652 36.3003 292.281 35.4203 293.513 34.7465C300.555 30.9396 301.3 30.5547 301.595 29.9501C301.645 29.8489 301.681 29.7416 301.733 29.611C301.909 29.1641 301.909 28.987 301.9 19.9051C301.891 13.5638 301.865 10.5618 301.795 10.3678ZM289.53 23.0741C290.559 22.5871 291.201 21.8434 291.543 20.7367C292.185 18.656 290.752 16.4071 288.554 16.0441C285.969 15.628 283.719 18.231 284.492 20.7367C284.835 21.8434 285.477 22.5871 286.506 23.0741C287.051 23.3397 287.165 23.3574 288.018 23.3574C288.871 23.3574 288.985 23.3397 289.53 23.0741Z" fill="white"/>
</svg>
