<svg width="310" height="40" viewBox="0 0 310 40" fill="none" xmlns="http://www.w3.org/2000/svg">
<path d="M1.46042 0.265738L1.97914 0.0126537L14.9031 0V40H2.24289L1.71538 39.7975C1.056 39.5444 0.379027 38.9033 0.15044 38.3043C0.00977156 37.9163 0.000979821 36.8449 0.000980595 19.9557C0.000981512 -0.0210904 -0.0517697 1.60709 0.616408 0.881577C0.801036 0.679109 1.17909 0.400716 1.46042 0.265738Z" fill="white"/>
<rect width="267" height="40" transform="translate(14.9031)" fill="white"/>
<path d="M24.2019 19.4053L30.5613 19.1475L30.6042 21.21L24.2234 21.5215L24.3093 27L22.2468 27.0859L21.9998 11.7783L33.6658 11.5957L33.5906 13.6475L24.116 13.7979L24.2019 19.4053ZM45.74 20.1572L43.6238 20.9521C43.6166 20.3434 43.5307 19.8493 43.366 19.4697C43.2084 19.0902 42.9972 18.8037 42.7322 18.6104C42.4815 18.4242 42.1986 18.3382 41.8835 18.3525C41.6759 18.3883 41.4646 18.4707 41.2498 18.5996C41.0278 18.7357 40.795 18.9147 40.5515 19.1367C40.3152 19.3587 40.0789 19.6058 39.8425 19.8779C39.7208 20.014 39.6026 20.1536 39.488 20.2969C39.3735 20.4401 39.2589 20.5833 39.1443 20.7266C38.9223 21.013 38.711 21.3031 38.5105 21.5967C38.31 21.8831 38.1309 22.1445 37.9734 22.3809C37.9806 22.6745 37.9877 23.0111 37.9949 23.3906C38.002 23.763 38.0092 24.1318 38.0164 24.4971C38.0307 24.8551 38.0414 25.1595 38.0486 25.4102C38.0629 25.8613 38.0772 26.2695 38.0916 26.6348C38.1059 26.9928 38.1238 27.2829 38.1453 27.5049L35.8357 27.7949L35.6208 21.7686C35.6065 21.3604 35.5922 20.9235 35.5779 20.458C35.5636 19.9854 35.5492 19.5413 35.5349 19.126C35.5206 18.7035 35.5098 18.3704 35.5027 18.127C35.474 17.1172 35.4526 16.3581 35.4382 15.8496L37.8875 15.8066C37.8946 16.0286 37.8982 16.2507 37.8982 16.4727C37.8982 16.6875 37.9018 16.9095 37.9089 17.1387C37.9089 17.3678 37.9089 17.5898 37.9089 17.8047C37.9089 18.0124 37.9125 18.2093 37.9197 18.3955C37.9268 18.6175 37.9304 18.8395 37.9304 19.0615C37.9304 19.2764 37.9304 19.4876 37.9304 19.6953C38.1381 19.3659 38.3923 19.0042 38.6931 18.6104C38.9939 18.2165 39.3305 17.8441 39.7029 17.4932C40.0824 17.1423 40.4942 16.8379 40.9382 16.5801C41.3822 16.3151 41.8585 16.1504 42.3669 16.0859C42.9255 16.0573 43.4483 16.179 43.9353 16.4512C44.1358 16.5658 44.3328 16.7197 44.5261 16.9131C44.7266 17.0993 44.9128 17.3392 45.0847 17.6328C45.2494 17.9336 45.3891 18.2917 45.5037 18.707C45.6182 19.1152 45.697 19.5986 45.74 20.1572ZM58.2976 21.79C58.2976 22.6924 58.1472 23.5267 57.8464 24.293C57.5457 25.0592 57.1339 25.7253 56.6111 26.291C56.0883 26.8568 55.476 27.2972 54.7742 27.6123C54.0723 27.9346 53.324 28.0957 52.5291 28.0957C50.9034 28.0957 49.5535 27.5156 48.4792 26.3555C47.9565 25.804 47.5447 25.1416 47.2439 24.3682C46.9431 23.5947 46.7927 22.7354 46.7927 21.79C46.7927 20.8376 46.9431 19.9746 47.2439 19.2012C47.5447 18.4206 47.9565 17.7546 48.4792 17.2031C48.9949 16.6517 49.6 16.2256 50.2947 15.9248C50.9893 15.624 51.7341 15.4736 52.5291 15.4736C53.324 15.4736 54.0723 15.6348 54.7742 15.957C55.476 16.2721 56.0883 16.709 56.6111 17.2676C57.1339 17.8333 57.5457 18.5029 57.8464 19.2764C58.1472 20.0426 58.2976 20.8805 58.2976 21.79ZM56.031 21.7686C56.031 21.2529 55.9666 20.7301 55.8376 20.2002C55.7087 19.6702 55.5046 19.1976 55.2253 18.7822C54.946 18.3597 54.5844 18.0195 54.1404 17.7617C53.6964 17.4967 53.1593 17.3643 52.5291 17.3643C51.9203 17.3643 51.3975 17.4967 50.9607 17.7617C50.5238 18.0195 50.1658 18.3597 49.8865 18.7822C49.6072 19.1976 49.4031 19.6702 49.2742 20.2002C49.1453 20.7301 49.0808 21.2529 49.0808 21.7686C49.0808 22.2842 49.1488 22.8034 49.2849 23.3262C49.4281 23.8418 49.643 24.3109 49.9294 24.7334C50.2159 25.1488 50.574 25.4925 51.0037 25.7646C51.4405 26.0296 51.949 26.1621 52.5291 26.1621C53.1378 26.1621 53.6606 26.0296 54.0974 25.7646C54.5414 25.4925 54.9067 25.1488 55.1931 24.7334C55.4796 24.3109 55.6908 23.8418 55.8269 23.3262C55.963 22.8034 56.031 22.2842 56.031 21.7686ZM63.3035 27.5049L60.9939 27.7949L60.7791 21.7686C60.7647 21.3604 60.7504 20.9235 60.7361 20.458C60.7218 19.9854 60.7074 19.5413 60.6931 19.126C60.6788 18.7035 60.6681 18.3704 60.6609 18.127C60.6322 17.1172 60.6108 16.3581 60.5964 15.8496L63.0457 15.8066L63.0886 18.9004C63.325 18.4922 63.5935 18.109 63.8943 17.751C64.1951 17.3857 64.5209 17.0635 64.8718 16.7842C65.2227 16.5049 65.5951 16.2793 65.989 16.1074C66.3901 15.9355 66.809 15.8353 67.2458 15.8066C67.7973 15.7708 68.2735 15.8174 68.6746 15.9463C69.0756 16.0752 69.4194 16.2542 69.7058 16.4834C69.9923 16.7054 70.2286 16.974 70.4148 17.2891C70.6082 17.6113 70.755 17.9336 70.8552 18.2559C70.9626 18.5853 71.0378 18.9183 71.0808 19.2549C71.1309 19.5843 71.1632 19.8851 71.1775 20.1572C71.2205 21.389 71.2312 22.6279 71.2097 23.874C71.1882 25.1201 71.1632 26.4128 71.1345 27.752L68.9324 27.6768C68.9897 26.5238 69.0398 25.3708 69.0828 24.2178C69.1329 23.0648 69.1293 21.901 69.072 20.7266C69.072 20.4759 69.0434 20.1895 68.9861 19.8672C68.9288 19.5378 68.825 19.2119 68.6746 18.8896C68.5671 18.6676 68.4275 18.4707 68.2556 18.2988C68.0837 18.1341 67.8725 18.0088 67.6218 17.9229C67.3783 17.8369 67.0919 17.819 66.7625 17.8691C66.1967 17.9551 65.6238 18.3669 65.0437 19.1045C64.4708 19.8206 63.8406 20.9056 63.1531 22.3594L63.2283 25.1094C63.2354 25.4531 63.2426 25.7539 63.2498 26.0117C63.2569 26.2695 63.2641 26.488 63.2712 26.667C63.2856 27.0824 63.2963 27.3617 63.3035 27.5049ZM76.7312 16.376L76.8171 11.6709L78.9548 11.5312L78.8796 16.333L83.0476 16.1934L82.8865 18.2021L78.8582 18.3096L78.7722 27.6768L76.5056 27.7305L76.6882 18.374L72.9714 18.46L73.0144 16.4834L76.7312 16.376ZM89.8796 26.0117C90.6746 26.0117 91.405 25.7754 92.071 25.3027C92.7371 24.8229 93.1703 24.1569 93.3708 23.3047L95.4441 23.7236C95.2436 24.3753 94.9607 24.9661 94.5955 25.4961C94.2302 26.026 93.8041 26.4808 93.3171 26.8604C92.8302 27.2399 92.2931 27.5335 91.7058 27.7412C91.1257 27.9489 90.517 28.0527 89.8796 28.0527C88.9343 28.0527 88.0964 27.9095 87.366 27.623C86.6355 27.3366 86.0196 26.932 85.5183 26.4092C84.4942 25.3421 83.9822 23.8883 83.9822 22.0479C83.9822 21.1527 84.1326 20.3184 84.4333 19.5449C84.7413 18.7643 85.1602 18.0876 85.6902 17.5146C86.2201 16.9417 86.8432 16.4906 87.5593 16.1611C88.2755 15.8317 89.0489 15.667 89.8796 15.667C90.6244 15.667 91.3263 15.8138 91.9851 16.1074C92.644 16.3939 93.2276 16.7913 93.7361 17.2998C94.2445 17.8154 94.6635 18.4206 94.9929 19.1152C95.3223 19.8099 95.53 20.5618 95.616 21.3711L86.3132 22.7568C86.3634 23.2653 86.4887 23.7236 86.6892 24.1318C86.8969 24.5329 87.1547 24.873 87.4626 25.1523C88.1 25.7253 88.9057 26.0117 89.8796 26.0117ZM86.3777 20.7695L92.8445 19.9854L92.78 19.7812C92.5079 19.0723 92.1319 18.5173 91.6521 18.1162C91.1794 17.7152 90.5886 17.5146 89.8796 17.5146C89.5789 17.5146 89.2494 17.5684 88.8914 17.6758C88.5333 17.776 88.186 17.9515 87.8494 18.2021C87.5128 18.4528 87.2084 18.7894 86.9363 19.2119C86.6713 19.6273 86.4851 20.1465 86.3777 20.7695ZM100.385 27.5049L98.0759 27.7949L97.8611 21.7686C97.8468 21.3604 97.8324 20.9235 97.8181 20.458C97.8038 19.9854 97.7895 19.5413 97.7751 19.126C97.7608 18.7035 97.7501 18.3704 97.7429 18.127C97.7143 17.1172 97.6928 16.3581 97.6785 15.8496L100.128 15.8066L100.171 18.9004C100.407 18.4922 100.676 18.109 100.976 17.751C101.277 17.3857 101.603 17.0635 101.954 16.7842C102.305 16.5049 102.677 16.2793 103.071 16.1074C103.472 15.9355 103.891 15.8353 104.328 15.8066C104.879 15.7708 105.356 15.8174 105.757 15.9463C106.158 16.0752 106.501 16.2542 106.788 16.4834C107.074 16.7054 107.311 16.974 107.497 17.2891C107.69 17.6113 107.837 17.9336 107.937 18.2559C108.045 18.5853 108.12 18.9183 108.163 19.2549C108.213 19.5843 108.245 19.8851 108.26 20.1572C108.302 21.389 108.313 22.6279 108.292 23.874C108.27 25.1201 108.245 26.4128 108.217 27.752L106.014 27.6768C106.072 26.5238 106.122 25.3708 106.165 24.2178C106.215 23.0648 106.211 21.901 106.154 20.7266C106.154 20.4759 106.125 20.1895 106.068 19.8672C106.011 19.5378 105.907 19.2119 105.757 18.8896C105.649 18.6676 105.51 18.4707 105.338 18.2988C105.166 18.1341 104.955 18.0088 104.704 17.9229C104.46 17.8369 104.174 17.819 103.844 17.8691C103.279 17.9551 102.706 18.3669 102.126 19.1045C101.553 19.8206 100.923 20.9056 100.235 22.3594L100.31 25.1094C100.317 25.4531 100.325 25.7539 100.332 26.0117C100.339 26.2695 100.346 26.488 100.353 26.667C100.368 27.0824 100.378 27.3617 100.385 27.5049ZM120.613 16.9453L120.699 11.4453L122.719 11.5957L122.676 27.4404H120.473L120.495 26.0762C120.094 26.4486 119.661 26.7458 119.195 26.9678C118.737 27.1898 118.3 27.3545 117.885 27.4619C117.433 27.5765 116.986 27.641 116.542 27.6553C114.852 27.6553 113.455 27.0931 112.352 25.9688C111.822 25.4316 111.403 24.7764 111.095 24.0029C110.795 23.2295 110.644 22.3594 110.644 21.3926C110.644 20.4186 110.813 19.5521 111.149 18.793C111.493 18.0267 111.937 17.3822 112.481 16.8594C113.033 16.3366 113.652 15.9391 114.34 15.667C115.027 15.3877 115.722 15.248 116.424 15.248C116.903 15.2552 117.39 15.3197 117.885 15.4414C118.307 15.5417 118.762 15.71 119.249 15.9463C119.736 16.1755 120.191 16.5085 120.613 16.9453ZM116.542 25.6787C117.444 25.6787 118.268 25.403 119.012 24.8516C119.757 24.3073 120.266 23.5947 120.538 22.7139L120.559 20.4258C120.43 19.9674 120.23 19.5485 119.958 19.1689C119.686 18.7822 119.367 18.4528 119.002 18.1807C118.235 17.6077 117.394 17.3213 116.477 17.3213C115.947 17.3213 115.46 17.4323 115.016 17.6543C114.572 17.8691 114.189 18.1663 113.867 18.5459C113.545 18.9255 113.294 19.373 113.115 19.8887C112.936 20.4043 112.846 20.9629 112.846 21.5645C112.846 22.166 112.936 22.7174 113.115 23.2188C113.301 23.7201 113.559 24.1533 113.888 24.5186C114.211 24.8838 114.597 25.1702 115.049 25.3779C115.507 25.5785 116.005 25.6787 116.542 25.6787ZM132.354 14.0234L132.311 11.7568L144.719 11.4883L144.676 13.54L139.659 13.7334L139.809 27.29L137.435 27.333V13.8193L132.354 14.0234ZM151.175 26.0117C151.969 26.0117 152.7 25.7754 153.366 25.3027C154.032 24.8229 154.465 24.1569 154.666 23.3047L156.739 23.7236C156.538 24.3753 156.256 24.9661 155.89 25.4961C155.525 26.026 155.099 26.4808 154.612 26.8604C154.125 27.2399 153.588 27.5335 153.001 27.7412C152.421 27.9489 151.812 28.0527 151.175 28.0527C150.229 28.0527 149.391 27.9095 148.661 27.623C147.93 27.3366 147.315 26.932 146.813 26.4092C145.789 25.3421 145.277 23.8883 145.277 22.0479C145.277 21.1527 145.427 20.3184 145.728 19.5449C146.036 18.7643 146.455 18.0876 146.985 17.5146C147.515 16.9417 148.138 16.4906 148.854 16.1611C149.57 15.8317 150.344 15.667 151.175 15.667C151.919 15.667 152.621 15.8138 153.28 16.1074C153.939 16.3939 154.523 16.7913 155.031 17.2998C155.539 17.8154 155.958 18.4206 156.288 19.1152C156.617 19.8099 156.825 20.5618 156.911 21.3711L147.608 22.7568C147.658 23.2653 147.784 23.7236 147.984 24.1318C148.192 24.5329 148.45 24.873 148.758 25.1523C149.395 25.7253 150.201 26.0117 151.175 26.0117ZM147.673 20.7695L154.139 19.9854L154.075 19.7812C153.803 19.0723 153.427 18.5173 152.947 18.1162C152.474 17.7152 151.884 17.5146 151.175 17.5146C150.874 17.5146 150.544 17.5684 150.186 17.6758C149.828 17.776 149.481 17.9515 149.144 18.2021C148.808 18.4528 148.503 18.7894 148.231 19.2119C147.966 19.6273 147.78 20.1465 147.673 20.7695ZM170.199 18.9004L170.22 18.9434L168.437 20.0283L168.416 19.9639C168.043 19.2334 167.521 18.6605 166.847 18.2451C166.174 17.8226 165.429 17.6113 164.613 17.6113C164.026 17.6113 163.474 17.7223 162.959 17.9443C162.45 18.1663 162.006 18.4707 161.627 18.8574C161.24 19.2441 160.936 19.6989 160.714 20.2217C160.492 20.7373 160.381 21.2887 160.381 21.876C160.381 22.4561 160.492 23.0039 160.714 23.5195C160.936 24.0352 161.24 24.4863 161.627 24.873C162.006 25.2598 162.45 25.5641 162.959 25.7861C163.474 26.0081 164.026 26.1191 164.613 26.1191C165.358 26.1191 166.063 25.9258 166.729 25.5391C167.395 25.1523 167.914 24.6403 168.287 24.0029L168.33 23.9385L170.199 25.002L170.177 25.0664C169.898 25.5319 169.558 25.9508 169.157 26.3232C168.763 26.6956 168.323 27.0179 167.836 27.29C166.84 27.8415 165.766 28.1172 164.613 28.1172C163.804 28.1172 163.023 27.9596 162.271 27.6445C161.519 27.3294 160.846 26.8926 160.252 26.334C159.664 25.7754 159.192 25.1165 158.834 24.3574C158.476 23.5983 158.297 22.7712 158.297 21.876C158.297 21.3389 158.372 20.8089 158.522 20.2861C158.823 19.2262 159.357 18.306 160.123 17.5254C160.309 17.3249 160.51 17.1423 160.724 16.9775C160.939 16.8057 161.161 16.6481 161.39 16.5049C161.856 16.2256 162.361 16.0072 162.905 15.8496C163.449 15.6849 164.019 15.6025 164.613 15.6025C165.845 15.6025 166.958 15.8926 167.954 16.4727C168.935 17.0527 169.683 17.862 170.199 18.9004ZM172.562 27.5479L172.38 10.9834L174.85 10.8975L174.786 17.4287C175.18 16.999 175.599 16.6624 176.043 16.4189C176.487 16.1683 176.902 15.9785 177.289 15.8496C177.733 15.7064 178.173 15.6097 178.61 15.5596C180.229 15.5596 181.525 16.1146 182.499 17.2246C182.971 17.7617 183.344 18.417 183.616 19.1904C183.895 19.9567 184.053 20.8232 184.089 21.79C184.089 22.2985 184.081 22.8177 184.067 23.3477C184.06 23.8776 184.038 24.3968 184.003 24.9053C183.96 25.4137 183.902 25.8971 183.831 26.3555C183.766 26.8138 183.677 27.2256 183.562 27.5908L181.113 27.4189C181.321 26.7314 181.468 26.0618 181.553 25.4102C181.647 24.7585 181.711 24.1748 181.747 23.6592C181.775 23.0576 181.786 22.4847 181.779 21.9404C181.743 21.1742 181.611 20.5225 181.382 19.9854C181.16 19.4482 180.88 19.0078 180.544 18.6641C180.214 18.3275 179.845 18.084 179.437 17.9336C179.036 17.776 178.642 17.6973 178.256 17.6973C177.855 17.7259 177.443 17.8441 177.02 18.0518C176.662 18.2236 176.279 18.4922 175.871 18.8574C175.463 19.2155 175.083 19.724 174.732 20.3828L174.668 27.5049L172.562 27.5479ZM189.481 27.5049L187.172 27.7949L186.957 21.7686C186.942 21.3604 186.928 20.9235 186.914 20.458C186.899 19.9854 186.885 19.5413 186.871 19.126C186.857 18.7035 186.846 18.3704 186.839 18.127C186.81 17.1172 186.788 16.3581 186.774 15.8496L189.223 15.8066L189.266 18.9004C189.503 18.4922 189.771 18.109 190.072 17.751C190.373 17.3857 190.699 17.0635 191.05 16.7842C191.4 16.5049 191.773 16.2793 192.167 16.1074C192.568 15.9355 192.987 15.8353 193.424 15.8066C193.975 15.7708 194.451 15.8174 194.852 15.9463C195.253 16.0752 195.597 16.2542 195.884 16.4834C196.17 16.7054 196.406 16.974 196.593 17.2891C196.786 17.6113 196.933 17.9336 197.033 18.2559C197.14 18.5853 197.216 18.9183 197.259 19.2549C197.309 19.5843 197.341 19.8851 197.355 20.1572C197.398 21.389 197.409 22.6279 197.387 23.874C197.366 25.1201 197.341 26.4128 197.312 27.752L195.11 27.6768C195.167 26.5238 195.218 25.3708 195.26 24.2178C195.311 23.0648 195.307 21.901 195.25 20.7266C195.25 20.4759 195.221 20.1895 195.164 19.8672C195.107 19.5378 195.003 19.2119 194.852 18.8896C194.745 18.6676 194.605 18.4707 194.433 18.2988C194.261 18.1341 194.05 18.0088 193.8 17.9229C193.556 17.8369 193.27 17.819 192.94 17.8691C192.374 17.9551 191.802 18.3669 191.221 19.1045C190.649 19.8206 190.018 20.9056 189.331 22.3594L189.406 25.1094C189.413 25.4531 189.42 25.7539 189.427 26.0117C189.435 26.2695 189.442 26.488 189.449 26.667C189.463 27.0824 189.474 27.3617 189.481 27.5049ZM211.245 21.79C211.245 22.6924 211.094 23.5267 210.794 24.293C210.493 25.0592 210.081 25.7253 209.558 26.291C209.036 26.8568 208.423 27.2972 207.721 27.6123C207.02 27.9346 206.271 28.0957 205.476 28.0957C203.851 28.0957 202.501 27.5156 201.427 26.3555C200.904 25.804 200.492 25.1416 200.191 24.3682C199.89 23.5947 199.74 22.7354 199.74 21.79C199.74 20.8376 199.89 19.9746 200.191 19.2012C200.492 18.4206 200.904 17.7546 201.427 17.2031C201.942 16.6517 202.547 16.2256 203.242 15.9248C203.937 15.624 204.681 15.4736 205.476 15.4736C206.271 15.4736 207.02 15.6348 207.721 15.957C208.423 16.2721 209.036 16.709 209.558 17.2676C210.081 17.8333 210.493 18.5029 210.794 19.2764C211.094 20.0426 211.245 20.8805 211.245 21.79ZM208.978 21.7686C208.978 21.2529 208.914 20.7301 208.785 20.2002C208.656 19.6702 208.452 19.1976 208.173 18.7822C207.893 18.3597 207.532 18.0195 207.088 17.7617C206.644 17.4967 206.107 17.3643 205.476 17.3643C204.868 17.3643 204.345 17.4967 203.908 17.7617C203.471 18.0195 203.113 18.3597 202.834 18.7822C202.554 19.1976 202.35 19.6702 202.221 20.2002C202.093 20.7301 202.028 21.2529 202.028 21.7686C202.028 22.2842 202.096 22.8034 202.232 23.3262C202.375 23.8418 202.59 24.3109 202.877 24.7334C203.163 25.1488 203.521 25.4925 203.951 25.7646C204.388 26.0296 204.896 26.1621 205.476 26.1621C206.085 26.1621 206.608 26.0296 207.045 25.7646C207.489 25.4925 207.854 25.1488 208.14 24.7334C208.427 24.3109 208.638 23.8418 208.774 23.3262C208.91 22.8034 208.978 22.2842 208.978 21.7686ZM218.163 25.3887L217.884 27.5264C217.375 27.5192 216.924 27.4333 216.53 27.2686C216.143 27.1038 215.803 26.889 215.51 26.624C215.209 26.3662 214.951 26.069 214.736 25.7324C214.528 25.3958 214.353 25.0557 214.21 24.7119C213.866 23.8955 213.651 22.9717 213.565 21.9404L213.855 8.31934H216.1L216.004 11.8213C215.989 12.3512 215.975 12.8597 215.961 13.3467C215.946 13.8265 215.932 14.2848 215.918 14.7217C215.896 15.5882 215.875 16.3688 215.853 17.0635C215.839 17.751 215.825 18.3561 215.81 18.8789C215.774 20.1178 215.753 21.0882 215.746 21.79C215.753 22.4489 215.85 23.0433 216.036 23.5732C216.193 24.0602 216.441 24.4827 216.777 24.8408C217.114 25.1917 217.576 25.3743 218.163 25.3887ZM230.602 21.79C230.602 22.6924 230.452 23.5267 230.151 24.293C229.85 25.0592 229.439 25.7253 228.916 26.291C228.393 26.8568 227.781 27.2972 227.079 27.6123C226.377 27.9346 225.629 28.0957 224.834 28.0957C223.208 28.0957 221.858 27.5156 220.784 26.3555C220.261 25.804 219.849 25.1416 219.549 24.3682C219.248 23.5947 219.097 22.7354 219.097 21.79C219.097 20.8376 219.248 19.9746 219.549 19.2012C219.849 18.4206 220.261 17.7546 220.784 17.2031C221.3 16.6517 221.905 16.2256 222.599 15.9248C223.294 15.624 224.039 15.4736 224.834 15.4736C225.629 15.4736 226.377 15.6348 227.079 15.957C227.781 16.2721 228.393 16.709 228.916 17.2676C229.439 17.8333 229.85 18.5029 230.151 19.2764C230.452 20.0426 230.602 20.8805 230.602 21.79ZM228.336 21.7686C228.336 21.2529 228.271 20.7301 228.142 20.2002C228.013 19.6702 227.809 19.1976 227.53 18.7822C227.251 18.3597 226.889 18.0195 226.445 17.7617C226.001 17.4967 225.464 17.3643 224.834 17.3643C224.225 17.3643 223.702 17.4967 223.265 17.7617C222.829 18.0195 222.47 18.3597 222.191 18.7822C221.912 19.1976 221.708 19.6702 221.579 20.2002C221.45 20.7301 221.385 21.2529 221.385 21.7686C221.385 22.2842 221.454 22.8034 221.59 23.3262C221.733 23.8418 221.948 24.3109 222.234 24.7334C222.521 25.1488 222.879 25.4925 223.308 25.7646C223.745 26.0296 224.254 26.1621 224.834 26.1621C225.442 26.1621 225.965 26.0296 226.402 25.7646C226.846 25.4925 227.211 25.1488 227.498 24.7334C227.784 24.3109 227.996 23.8418 228.132 23.3262C228.268 22.8034 228.336 22.2842 228.336 21.7686ZM242.236 17.1709L242.258 15.0332L244.363 15.0977L244.299 27.4404C244.291 27.6696 244.274 27.9023 244.245 28.1387C244.216 28.375 244.173 28.6077 244.116 28.8369C243.887 29.7751 243.439 30.6309 242.773 31.4043C242.437 31.7839 242.053 32.124 241.624 32.4248C241.187 32.7184 240.7 32.9583 240.163 33.1445C239.626 33.3379 239.038 33.4596 238.401 33.5098C237.556 33.5384 236.74 33.4489 235.952 33.2412C235.25 33.055 234.57 32.7292 233.911 32.2637C233.252 31.7982 232.761 31.1501 232.439 30.3193L234.512 29.417C234.763 29.9827 235.118 30.4196 235.576 30.7275C236.041 31.0426 236.514 31.2467 236.994 31.3398C237.517 31.4544 238.068 31.4759 238.648 31.4043C238.899 31.3542 239.132 31.2897 239.346 31.2109C239.568 31.1322 239.773 31.0426 239.959 30.9424C240.324 30.7347 240.635 30.502 240.893 30.2441C241.158 29.9935 241.37 29.7285 241.527 29.4492C241.606 29.306 241.674 29.1663 241.731 29.0303C241.796 28.8942 241.853 28.7617 241.903 28.6328C241.996 28.375 242.057 28.1387 242.086 27.9238C242.122 27.7161 242.139 27.555 242.139 27.4404V26.0332C241.71 26.4414 241.262 26.7565 240.797 26.9785C240.338 27.1934 239.912 27.3509 239.518 27.4512C239.289 27.5085 239.06 27.555 238.831 27.5908C238.609 27.6266 238.387 27.6481 238.165 27.6553C236.475 27.6553 235.078 27.0931 233.975 25.9688C233.445 25.4316 233.026 24.7764 232.719 24.0029C232.418 23.2295 232.267 22.3594 232.267 21.3926C232.267 20.4186 232.436 19.5521 232.772 18.793C233.116 18.0267 233.56 17.3822 234.104 16.8594C234.656 16.3366 235.275 15.9391 235.963 15.667C236.65 15.3877 237.345 15.248 238.047 15.248C238.534 15.3053 239.024 15.4128 239.518 15.5703C239.941 15.7064 240.396 15.8997 240.883 16.1504C241.37 16.401 241.821 16.7412 242.236 17.1709ZM238.165 25.5928C239.124 25.5928 239.987 25.2777 240.754 24.6475C241.112 24.3538 241.416 24.0029 241.667 23.5947C241.917 23.1794 242.089 22.7246 242.182 22.2305V20.8232C242.104 20.3148 241.935 19.8529 241.677 19.4375C241.42 19.015 241.105 18.6533 240.732 18.3525C239.959 17.7223 239.081 17.4072 238.1 17.4072C237.585 17.4072 237.108 17.5146 236.672 17.7295C236.242 17.9372 235.87 18.2272 235.554 18.5996C235.247 18.972 235.003 19.4124 234.824 19.9209C234.645 20.4294 234.555 20.9772 234.555 21.5645C234.555 22.1517 234.645 22.6924 234.824 23.1865C235.003 23.6735 235.254 24.096 235.576 24.4541C235.891 24.805 236.267 25.0843 236.704 25.292C237.148 25.4925 237.635 25.5928 238.165 25.5928ZM250.422 12.6807C250.422 13.096 250.268 13.4541 249.96 13.7549C249.659 14.0485 249.297 14.1953 248.875 14.1953C248.459 14.1953 248.101 14.0485 247.801 13.7549C247.507 13.4541 247.36 13.096 247.36 12.6807C247.36 12.2581 247.507 11.8965 247.801 11.5957C248.101 11.2878 248.459 11.1338 248.875 11.1338C249.297 11.1338 249.659 11.2878 249.96 11.5957C250.268 11.8965 250.422 12.2581 250.422 12.6807ZM247.693 16.5479L249.917 16.4619L249.809 21.6182C249.774 23.0361 249.752 24.1497 249.745 24.959C249.723 25.9473 249.713 26.7243 249.713 27.29H247.51C247.518 26.9033 247.525 26.4808 247.532 26.0225C247.546 25.557 247.557 25.0592 247.564 24.5293C247.579 23.6055 247.6 22.4847 247.629 21.167L247.693 16.5479ZM258.167 26.0117C258.962 26.0117 259.692 25.7754 260.358 25.3027C261.024 24.8229 261.457 24.1569 261.658 23.3047L263.731 23.7236C263.531 24.3753 263.248 24.9661 262.883 25.4961C262.517 26.026 262.091 26.4808 261.604 26.8604C261.117 27.2399 260.58 27.5335 259.993 27.7412C259.413 27.9489 258.804 28.0527 258.167 28.0527C257.221 28.0527 256.384 27.9095 255.653 27.623C254.923 27.3366 254.307 26.932 253.805 26.4092C252.781 25.3421 252.269 23.8883 252.269 22.0479C252.269 21.1527 252.42 20.3184 252.72 19.5449C253.028 18.7643 253.447 18.0876 253.977 17.5146C254.507 16.9417 255.13 16.4906 255.846 16.1611C256.563 15.8317 257.336 15.667 258.167 15.667C258.912 15.667 259.613 15.8138 260.272 16.1074C260.931 16.3939 261.515 16.7913 262.023 17.2998C262.532 17.8154 262.951 18.4206 263.28 19.1152C263.609 19.8099 263.817 20.5618 263.903 21.3711L254.6 22.7568C254.65 23.2653 254.776 23.7236 254.976 24.1318C255.184 24.5329 255.442 24.873 255.75 25.1523C256.387 25.7253 257.193 26.0117 258.167 26.0117ZM254.665 20.7695L261.132 19.9854L261.067 19.7812C260.795 19.0723 260.419 18.5173 259.939 18.1162C259.467 17.7152 258.876 17.5146 258.167 17.5146C257.866 17.5146 257.537 17.5684 257.178 17.6758C256.82 17.776 256.473 17.9515 256.136 18.2021C255.8 18.4528 255.496 18.7894 255.223 19.2119C254.958 19.6273 254.772 20.1465 254.665 20.7695ZM275.934 24.6475C275.934 25.3278 275.798 25.9007 275.526 26.3662C275.254 26.8245 274.885 27.2005 274.42 27.4941C273.961 27.7806 273.431 27.9919 272.83 28.1279C272.228 28.2712 271.605 28.3571 270.961 28.3857C270.288 28.3714 269.622 28.3034 268.963 28.1816C268.383 28.0814 267.742 27.8952 267.04 27.623C266.338 27.3509 265.708 26.9964 265.149 26.5596L266.191 24.9268C266.585 25.1344 266.986 25.335 267.394 25.5283C267.81 25.7217 268.232 25.89 268.662 26.0332C269.092 26.1836 269.532 26.3018 269.983 26.3877C270.434 26.4736 270.9 26.5166 271.38 26.5166C272.06 26.5166 272.583 26.4056 272.948 26.1836C273.313 25.9544 273.553 25.6751 273.668 25.3457C273.797 24.916 273.671 24.5042 273.292 24.1104C273.22 24.0387 273.138 23.9743 273.045 23.917C272.952 23.8525 272.848 23.7917 272.733 23.7344C272.504 23.627 272.225 23.5374 271.895 23.4658C271.566 23.3942 271.176 23.3477 270.724 23.3262C270.08 23.2975 269.457 23.2331 268.855 23.1328C268.261 23.0254 267.731 22.8607 267.265 22.6387C266.793 22.4167 266.402 22.1266 266.094 21.7686C265.794 21.4033 265.611 20.9486 265.547 20.4043C265.497 19.9102 265.532 19.4375 265.654 18.9863C265.883 18.1628 266.356 17.486 267.072 16.9561C267.251 16.8343 267.434 16.7197 267.62 16.6123C267.813 16.5049 268.014 16.4082 268.221 16.3223C268.637 16.1576 269.074 16.0358 269.532 15.957C269.997 15.8711 270.467 15.8281 270.939 15.8281C271.219 15.8281 271.548 15.8424 271.927 15.8711C272.307 15.8997 272.705 15.957 273.12 16.043C273.535 16.1289 273.954 16.2542 274.377 16.4189C274.799 16.5765 275.193 16.7878 275.558 17.0527L274.817 19.0186C274.344 18.7679 273.893 18.5745 273.464 18.4385C273.041 18.2952 272.665 18.1842 272.336 18.1055C272.142 18.0625 271.953 18.0267 271.766 17.998C271.587 17.9694 271.415 17.9479 271.251 17.9336C270.126 17.8691 269.249 17.9873 268.619 18.2881C267.996 18.5889 267.684 19.0436 267.684 19.6523C267.684 20.082 267.802 20.3971 268.039 20.5977C268.275 20.791 268.597 20.9307 269.006 21.0166C269.242 21.0667 269.543 21.1097 269.908 21.1455C270.28 21.1742 270.667 21.2064 271.068 21.2422C271.476 21.278 271.845 21.321 272.175 21.3711C272.876 21.4785 273.467 21.6396 273.947 21.8545C274.427 22.0693 274.814 22.32 275.107 22.6064C275.401 22.8929 275.612 23.2116 275.741 23.5625C275.87 23.9062 275.934 24.2679 275.934 24.6475Z" fill="black"/>
<path fill-rule="evenodd" clip-rule="evenodd" d="M309.795 10.3678C309.592 9.75223 308.959 9.25471 307.166 8.28496C306.511 7.93521 305.508 7.39377 304.601 6.90379C304.217 6.69675 303.851 6.49891 303.535 6.32859C302.948 6.00743 302.28 5.64517 301.707 5.33398C301.241 5.08137 300.838 4.86241 300.59 4.7264C300.036 4.43125 299.042 3.89157 298.392 3.52896C294.822 1.56417 292.273 0.214949 291.947 0.105325C291.732 0.0366424 289.962 0.00680769 281.903 0V40H291.666L292.079 39.8145C292.299 39.7217 293.741 38.9544 295.288 38.1195C295.819 37.8315 296.501 37.4631 297.243 37.0619C298.652 36.3003 300.281 35.4203 301.513 34.7465C308.555 30.9396 309.3 30.5547 309.595 29.9501C309.645 29.8489 309.681 29.7416 309.733 29.611C309.909 29.1641 309.909 28.987 309.9 19.9051C309.891 13.5638 309.865 10.5618 309.795 10.3678ZM297.53 23.0741C298.559 22.5871 299.201 21.8434 299.543 20.7367C300.185 18.656 298.752 16.4071 296.554 16.0441C293.969 15.628 291.719 18.231 292.492 20.7367C292.835 21.8434 293.477 22.5871 294.506 23.0741C295.051 23.3397 295.165 23.3574 296.018 23.3574C296.871 23.3574 296.985 23.3397 297.53 23.0741Z" fill="white"/>
</svg>
