<svg id="visual" viewBox="0 0 900 600" width="900" height="600" xmlns="http://www.w3.org/2000/svg" xmlns:xlink="http://www.w3.org/1999/xlink" version="1.1"><rect width="900" height="600" fill="#ffffff"></rect><g><g transform="translate(107 215)"><path d="M0 -13.1L10.3 -8.2L12.8 2.9L5.7 11.8L-5.7 11.8L-12.8 2.9L-10.3 -8.2Z" fill="none" stroke="#CCCCCC" stroke-width="2"></path></g><g transform="translate(22 254)"><path d="M0 -6L4.7 -3.7L5.8 1.3L2.6 5.4L-2.6 5.4L-5.8 1.3L-4.7 -3.7Z" fill="none" stroke="#CCCCCC" stroke-width="2"></path></g><g transform="translate(80 55)"><path d="M0 -8L6.3 -5L7.8 1.8L3.5 7.2L-3.5 7.2L-7.8 1.8L-6.3 -5Z" fill="none" stroke="#CCCCCC" stroke-width="2"></path></g><g transform="translate(5 472)"><path d="M0 -9L7 -5.6L8.8 2L3.9 8.1L-3.9 8.1L-8.8 2L-7 -5.6Z" fill="none" stroke="#CCCCCC" stroke-width="2"></path></g><g transform="translate(572 515)"><path d="M0 -9L7 -5.6L8.8 2L3.9 8.1L-3.9 8.1L-8.8 2L-7 -5.6Z" fill="none" stroke="#CCCCCC" stroke-width="2"></path></g><g transform="translate(772 67)"><path d="M0 -1L0.8 -0.6L1 0.2L0.4 0.9L-0.4 0.9L-1 0.2L-0.8 -0.6Z" fill="none" stroke="#CCCCCC" stroke-width="2"></path></g><g transform="translate(477 554)"><path d="M0 -2L1.6 -1.2L1.9 0.4L0.9 1.8L-0.9 1.8L-1.9 0.4L-1.6 -1.2Z" fill="none" stroke="#CCCCCC" stroke-width="2"></path></g><g transform="translate(129 30)"><path d="M0 -2L1.6 -1.2L1.9 0.4L0.9 1.8L-0.9 1.8L-1.9 0.4L-1.6 -1.2Z" fill="none" stroke="#CCCCCC" stroke-width="2"></path></g><g transform="translate(515 60)"><path d="M0 -5L3.9 -3.1L4.9 1.1L2.2 4.5L-2.2 4.5L-4.9 1.1L-3.9 -3.1Z" fill="none" stroke="#CCCCCC" stroke-width="2"></path></g><g transform="translate(314 103)"><path d="M0 -12L9.4 -7.5L11.7 2.7L5.2 10.8L-5.2 10.8L-11.7 2.7L-9.4 -7.5Z" fill="none" stroke="#CCCCCC" stroke-width="2"></path></g><g transform="translate(772 14)"><path d="M0 -3L2.3 -1.9L2.9 0.7L1.3 2.7L-1.3 2.7L-2.9 0.7L-2.3 -1.9Z" fill="none" stroke="#CCCCCC" stroke-width="2"></path></g><g transform="translate(800 446)"><path d="M0 -8L6.3 -5L7.8 1.8L3.5 7.2L-3.5 7.2L-7.8 1.8L-6.3 -5Z" fill="none" stroke="#CCCCCC" stroke-width="2"></path></g><g transform="translate(817 75)"><path d="M0 -11L8.6 -6.9L10.7 2.4L4.8 9.9L-4.8 9.9L-10.7 2.4L-8.6 -6.9Z" fill="none" stroke="#CCCCCC" stroke-width="2"></path></g><g transform="translate(143 155)"><path d="M0 -4L3.1 -2.5L3.9 0.9L1.7 3.6L-1.7 3.6L-3.9 0.9L-3.1 -2.5Z" fill="none" stroke="#CCCCCC" stroke-width="2"></path></g><g transform="translate(428 70)"><path d="M0 -5L3.9 -3.1L4.9 1.1L2.2 4.5L-2.2 4.5L-4.9 1.1L-3.9 -3.1Z" fill="none" stroke="#CCCCCC" stroke-width="2"></path></g><g transform="translate(718 472)"><path d="M0 -2L1.6 -1.2L1.9 0.4L0.9 1.8L-0.9 1.8L-1.9 0.4L-1.6 -1.2Z" fill="none" stroke="#CCCCCC" stroke-width="2"></path></g></g></svg>