<svg width="263" height="255" viewBox="0 0 263 255" fill="none" xmlns="http://www.w3.org/2000/svg">
<path d="M29.0603 3.51299C45.4384 5.04669 55.9578 6.59085 71.5495 11.7984C83.9955 15.9553 100.039 17.7654 114.143 20.1881C121.334 21.4233 129.015 21.8034 136.297 22.064C145.222 22.3834 154.904 20.8233 163.705 22.533C184.288 26.5316 205.128 34.8551 221.744 47.6498C243.314 64.2597 259.152 86.7062 260.905 114.454C262.255 135.839 249.06 160.755 233.341 174.537C209.33 195.588 178.874 196.956 148.259 197.569C129.886 197.937 112.338 200.619 94.7444 205.959C78.9393 210.756 67.249 218.747 54.1794 228.418C42.8403 236.808 30.3943 244 17.2029 249.001C5.37749 253.485 -8.45396 253.31 -20.9178 252.649C-39.0145 251.689 -61.4201 249.272 -77.2927 239.517C-90.6645 231.3 -100.875 217.689 -109.745 205.125C-116.497 195.559 -122.863 184.295 -116.141 173.599C-112.141 167.232 -106.849 161.866 -103.036 155.256C-97.9515 146.444 -93.7628 137.955 -89.8782 128.524C-79.1632 102.509 -78.5035 73.5607 -66.2673 48.0667C-61.6506 38.4479 -54.423 30.4518 -46.3489 23.5752C-37.1241 15.7186 -24.6001 7.06917 -12.7008 3.98198C0.245453 0.623178 15.9566 2.28591 29.0603 3.51299Z" fill="white" stroke="white" stroke-width="3" stroke-linecap="round"/>
</svg>
