<svg width="197" height="406" viewBox="0 0 197 406" fill="none" xmlns="http://www.w3.org/2000/svg">
<path d="M30.5 365C34.5662 374.629 45.1345 406 108.44 406C136.428 406 185.999 374.971 210.057 356.5C285.063 315.45 266.849 300.369 293 270.5C309.355 248.963 318.113 252.011 341.674 239.708C375.19 222.206 429.133 199.262 443.566 161.346C469.835 92.338 395.059 41.7491 343.491 13.0352C304.087 -8.90532 252.529 2.14386 210.057 8.25104C171.985 13.7255 133.563 30.0838 102.716 53.1236C39.9882 99.9748 -2.99572 180.445 0.163276 259.339C0.925364 278.372 8.33328 294.945 11.2277 313.45C12.6597 322.606 26.7832 356.199 30.5 365Z" fill="white"/>
</svg>
